# xmcd CD database file
#
# Track frame offsets:
#	150
#	28910
#	54375
#	70252
#	95060
#	116655
#	132940
#	156810
#	183487
#	199950
#	217057
#	238942
#	267442
#	287930
#	304525
#
# Disc length: 4389 seconds
#
# Revision: 0
# Processed by: cddbd v1.5.1PL2 Copyright (c) Steve Scherf et al.
# Submitted via: CDex 1.51
#
DISCID=ee11230f
DTITLE=The Storyville Jassband - Yearning, Just for You
DYEAR=2006
DGENRE=Jazz
TTITLE0=You Tell Me Dreams
TTITLE1=Stevedore Stomp
TTITLE2=A Lovely Way To Spend An Evening
TTITLE3=Ain't Misbehavin'
TTITLE4=Too Busy
TTITLE5=I Have A Friend Above All Others
TTITLE6=Yearning, Just For You
TTITLE7=Glory Of Love
TTITLE8=The World Is Waiting For The Sunrise
TTITLE9='Deed I Do
TTITLE10=Sweetheart Of Sigma Chi
TTITLE11=Hindustan
TTITLE12=Dinah
TTITLE13=Hushabye
TTITLE14=1919 March
EXTD=YEAR: 2006
EXTT0=
EXTT1=
EXTT2=
EXTT3=
EXTT4=
EXTT5=
EXTT6=
EXTT7=
EXTT8=
EXTT9=
EXTT10=
EXTT11=
EXTT12=
EXTT13=
EXTT14=
PLAYORDER=
